<mxfile host="app.diagrams.net" agent="Mozilla/5.0 (Windows NT 10.0; Win64; x64) AppleWebKit/537.36 (KHTML, like Gecko) Chrome/128.0.0.0 Safari/537.36" version="24.7.10">
  <diagram name="Trang-1" id="q7nYoQc1602PIqKtctQi">
    <mxGraphModel dx="1877" dy="569" grid="1" gridSize="10" guides="1" tooltips="1" connect="1" arrows="1" fold="1" page="1" pageScale="1" pageWidth="827" pageHeight="1169" background="none" math="0" shadow="1">
      <root>
        <mxCell id="0" />
        <mxCell id="1" parent="0" />
        <mxCell id="q72k156ZhGf7jv7Tygx8-4" value="" style="edgeStyle=orthogonalEdgeStyle;rounded=0;orthogonalLoop=1;jettySize=auto;html=1;" edge="1" parent="1" source="q72k156ZhGf7jv7Tygx8-2" target="q72k156ZhGf7jv7Tygx8-3">
          <mxGeometry relative="1" as="geometry" />
        </mxCell>
        <mxCell id="q72k156ZhGf7jv7Tygx8-2" value="start" style="ellipse;whiteSpace=wrap;html=1;" vertex="1" parent="1">
          <mxGeometry x="-4" y="170" width="120" height="80" as="geometry" />
        </mxCell>
        <mxCell id="q72k156ZhGf7jv7Tygx8-6" value="" style="edgeStyle=orthogonalEdgeStyle;rounded=0;orthogonalLoop=1;jettySize=auto;html=1;" edge="1" parent="1" source="q72k156ZhGf7jv7Tygx8-3">
          <mxGeometry relative="1" as="geometry">
            <mxPoint x="-40" y="450" as="targetPoint" />
            <Array as="points">
              <mxPoint x="-39" y="365" />
            </Array>
          </mxGeometry>
        </mxCell>
        <mxCell id="q72k156ZhGf7jv7Tygx8-3" value="secret number(between 1 and 100)&lt;div&gt;input guess=0&lt;/div&gt;&lt;div&gt;d=0&lt;/div&gt;" style="ellipse;whiteSpace=wrap;html=1;" vertex="1" parent="1">
          <mxGeometry x="-7" y="320" width="126" height="90" as="geometry" />
        </mxCell>
        <mxCell id="q72k156ZhGf7jv7Tygx8-9" value="" style="edgeStyle=orthogonalEdgeStyle;rounded=0;orthogonalLoop=1;jettySize=auto;html=1;" edge="1" parent="1" target="q72k156ZhGf7jv7Tygx8-8">
          <mxGeometry relative="1" as="geometry">
            <mxPoint x="23" y="495" as="sourcePoint" />
          </mxGeometry>
        </mxCell>
        <mxCell id="q72k156ZhGf7jv7Tygx8-31" value="" style="edgeStyle=orthogonalEdgeStyle;rounded=0;orthogonalLoop=1;jettySize=auto;html=1;" edge="1" parent="1" source="q72k156ZhGf7jv7Tygx8-5" target="q72k156ZhGf7jv7Tygx8-30">
          <mxGeometry relative="1" as="geometry" />
        </mxCell>
        <mxCell id="q72k156ZhGf7jv7Tygx8-5" value="secret number != guess" style="ellipse;whiteSpace=wrap;html=1;" vertex="1" parent="1">
          <mxGeometry x="-110" y="450" width="126" height="90" as="geometry" />
        </mxCell>
        <mxCell id="q72k156ZhGf7jv7Tygx8-11" style="edgeStyle=orthogonalEdgeStyle;rounded=0;orthogonalLoop=1;jettySize=auto;html=1;" edge="1" parent="1">
          <mxGeometry relative="1" as="geometry">
            <mxPoint x="266" y="440" as="targetPoint" />
            <mxPoint x="226" y="495" as="sourcePoint" />
            <Array as="points">
              <mxPoint x="267" y="495.5" />
            </Array>
          </mxGeometry>
        </mxCell>
        <mxCell id="q72k156ZhGf7jv7Tygx8-24" style="edgeStyle=orthogonalEdgeStyle;rounded=0;orthogonalLoop=1;jettySize=auto;html=1;" edge="1" parent="1" source="q72k156ZhGf7jv7Tygx8-8">
          <mxGeometry relative="1" as="geometry">
            <mxPoint x="270" y="580" as="targetPoint" />
          </mxGeometry>
        </mxCell>
        <mxCell id="q72k156ZhGf7jv7Tygx8-8" value="secret number&amp;gt;guess?" style="whiteSpace=wrap;html=1;" vertex="1" parent="1">
          <mxGeometry x="106" y="465" width="120" height="60" as="geometry" />
        </mxCell>
        <mxCell id="q72k156ZhGf7jv7Tygx8-10" value="yes" style="text;html=1;align=center;verticalAlign=middle;resizable=0;points=[];autosize=1;strokeColor=none;fillColor=none;" vertex="1" parent="1">
          <mxGeometry x="36" y="468" width="40" height="30" as="geometry" />
        </mxCell>
        <mxCell id="q72k156ZhGf7jv7Tygx8-14" value="" style="edgeStyle=orthogonalEdgeStyle;rounded=0;orthogonalLoop=1;jettySize=auto;html=1;" edge="1" parent="1" source="q72k156ZhGf7jv7Tygx8-12" target="q72k156ZhGf7jv7Tygx8-13">
          <mxGeometry relative="1" as="geometry" />
        </mxCell>
        <mxCell id="q72k156ZhGf7jv7Tygx8-12" value="d+1" style="rounded=0;whiteSpace=wrap;html=1;" vertex="1" parent="1">
          <mxGeometry x="226" y="380" width="120" height="60" as="geometry" />
        </mxCell>
        <mxCell id="q72k156ZhGf7jv7Tygx8-36" value="" style="edgeStyle=orthogonalEdgeStyle;rounded=0;orthogonalLoop=1;jettySize=auto;html=1;" edge="1" parent="1" source="q72k156ZhGf7jv7Tygx8-13" target="q72k156ZhGf7jv7Tygx8-35">
          <mxGeometry relative="1" as="geometry" />
        </mxCell>
        <mxCell id="q72k156ZhGf7jv7Tygx8-13" value="print&quot;Too low try again!&quot;" style="rounded=0;whiteSpace=wrap;html=1;" vertex="1" parent="1">
          <mxGeometry x="426" y="380" width="120" height="60" as="geometry" />
        </mxCell>
        <mxCell id="q72k156ZhGf7jv7Tygx8-15" value="yes" style="text;html=1;align=center;verticalAlign=middle;resizable=0;points=[];autosize=1;strokeColor=none;fillColor=none;" vertex="1" parent="1">
          <mxGeometry x="230" y="448" width="40" height="30" as="geometry" />
        </mxCell>
        <mxCell id="q72k156ZhGf7jv7Tygx8-26" value="no" style="text;html=1;align=center;verticalAlign=middle;resizable=0;points=[];autosize=1;strokeColor=none;fillColor=none;" vertex="1" parent="1">
          <mxGeometry x="220" y="528" width="40" height="30" as="geometry" />
        </mxCell>
        <mxCell id="q72k156ZhGf7jv7Tygx8-29" value="" style="edgeStyle=orthogonalEdgeStyle;rounded=0;orthogonalLoop=1;jettySize=auto;html=1;" edge="1" parent="1" source="q72k156ZhGf7jv7Tygx8-27" target="q72k156ZhGf7jv7Tygx8-28">
          <mxGeometry relative="1" as="geometry" />
        </mxCell>
        <mxCell id="q72k156ZhGf7jv7Tygx8-27" value="d+1" style="rounded=0;whiteSpace=wrap;html=1;" vertex="1" parent="1">
          <mxGeometry x="230" y="580" width="120" height="60" as="geometry" />
        </mxCell>
        <mxCell id="q72k156ZhGf7jv7Tygx8-38" value="" style="edgeStyle=orthogonalEdgeStyle;rounded=0;orthogonalLoop=1;jettySize=auto;html=1;" edge="1" parent="1" source="q72k156ZhGf7jv7Tygx8-28" target="q72k156ZhGf7jv7Tygx8-37">
          <mxGeometry relative="1" as="geometry" />
        </mxCell>
        <mxCell id="q72k156ZhGf7jv7Tygx8-28" value="print&quot;too high try again!&quot;" style="rounded=0;whiteSpace=wrap;html=1;" vertex="1" parent="1">
          <mxGeometry x="430" y="580" width="120" height="60" as="geometry" />
        </mxCell>
        <mxCell id="q72k156ZhGf7jv7Tygx8-34" value="" style="edgeStyle=orthogonalEdgeStyle;rounded=0;orthogonalLoop=1;jettySize=auto;html=1;" edge="1" parent="1" source="q72k156ZhGf7jv7Tygx8-30" target="q72k156ZhGf7jv7Tygx8-33">
          <mxGeometry relative="1" as="geometry" />
        </mxCell>
        <mxCell id="q72k156ZhGf7jv7Tygx8-30" value="print&quot;congratulations! you &#39;ve guessed&amp;nbsp; the right number&quot;" style="ellipse;whiteSpace=wrap;html=1;" vertex="1" parent="1">
          <mxGeometry x="-316" y="450" width="126" height="90" as="geometry" />
        </mxCell>
        <mxCell id="q72k156ZhGf7jv7Tygx8-32" value="no" style="text;html=1;align=center;verticalAlign=middle;resizable=0;points=[];autosize=1;strokeColor=none;fillColor=none;" vertex="1" parent="1">
          <mxGeometry x="-160" y="468" width="40" height="30" as="geometry" />
        </mxCell>
        <mxCell id="q72k156ZhGf7jv7Tygx8-40" value="" style="edgeStyle=orthogonalEdgeStyle;rounded=0;orthogonalLoop=1;jettySize=auto;html=1;" edge="1" parent="1" source="q72k156ZhGf7jv7Tygx8-33" target="q72k156ZhGf7jv7Tygx8-39">
          <mxGeometry relative="1" as="geometry" />
        </mxCell>
        <mxCell id="q72k156ZhGf7jv7Tygx8-33" value="print&quot;it took you&quot; d &quot;attempts" style="ellipse;whiteSpace=wrap;html=1;" vertex="1" parent="1">
          <mxGeometry x="-260" y="580" width="126" height="90" as="geometry" />
        </mxCell>
        <mxCell id="q72k156ZhGf7jv7Tygx8-46" style="edgeStyle=orthogonalEdgeStyle;rounded=0;orthogonalLoop=1;jettySize=auto;html=1;exitX=0;exitY=0.75;exitDx=0;exitDy=0;" edge="1" parent="1" source="q72k156ZhGf7jv7Tygx8-35" target="q72k156ZhGf7jv7Tygx8-5">
          <mxGeometry relative="1" as="geometry" />
        </mxCell>
        <mxCell id="q72k156ZhGf7jv7Tygx8-35" value="input guess" style="rounded=0;whiteSpace=wrap;html=1;" vertex="1" parent="1">
          <mxGeometry x="426" y="220" width="120" height="60" as="geometry" />
        </mxCell>
        <mxCell id="q72k156ZhGf7jv7Tygx8-37" value="input guess" style="rounded=0;whiteSpace=wrap;html=1;" vertex="1" parent="1">
          <mxGeometry x="430" y="710" width="120" height="60" as="geometry" />
        </mxCell>
        <mxCell id="q72k156ZhGf7jv7Tygx8-39" value="print&quot; thank you for your playing&quot;" style="ellipse;whiteSpace=wrap;html=1;" vertex="1" parent="1">
          <mxGeometry x="-54" y="580" width="126" height="90" as="geometry" />
        </mxCell>
        <mxCell id="q72k156ZhGf7jv7Tygx8-47" style="edgeStyle=orthogonalEdgeStyle;rounded=0;orthogonalLoop=1;jettySize=auto;html=1;entryX=0.294;entryY=0.989;entryDx=0;entryDy=0;entryPerimeter=0;" edge="1" parent="1" source="q72k156ZhGf7jv7Tygx8-37" target="q72k156ZhGf7jv7Tygx8-5">
          <mxGeometry relative="1" as="geometry" />
        </mxCell>
      </root>
    </mxGraphModel>
  </diagram>
</mxfile>
